# xmcd CD database file
#
# Track frame offsets:
#	182
#	17387
#	30592
#	49050
#	61277
#	78862
#	97895
#	113997
#
# Disc length: 1757 seconds
#
# Revision: 1
# Processed by: cddbd v1.5.2PL0 Copyright (c) Steve Scherf et al.
# Submitted via: CDex 1.50beta10
#
DISCID=5206db08
DTITLE=Tom Johnston - Everything You've Heard Is True
DYEAR=1979
DGENRE=Classic Rock
TTITLE0=Down Along The River
TTITLE1=Show Me
TTITLE2=Savannah Nights
TTITLE3=I Can Count On You
TTITLE4=Small Time Talk
TTITLE5=Reachin' Out For Lovin' From You
TTITLE6=Outlaw
TTITLE7=Man On The Stage
EXTD=YEAR: 1979
EXTT0=
EXTT1=
EXTT2=
EXTT3=
EXTT4=
EXTT5=
EXTT6=
EXTT7=
PLAYORDER=
